<svg width="17" height="17" viewBox="0 0 17 17" fill="none" xmlns="http://www.w3.org/2000/svg">
<circle cx="8.5" cy="8.5" r="8.5" fill="#F2994A"/>
<path d="M9.37305 10.3809H7.9668L7.76758 4.46875H9.57227L9.37305 10.3809ZM8.66992 11.3066C8.95508 11.3066 9.18359 11.3906 9.35547 11.5586C9.53125 11.7266 9.61914 11.9414 9.61914 12.2031C9.61914 12.4609 9.53125 12.6738 9.35547 12.8418C9.18359 13.0098 8.95508 13.0938 8.66992 13.0938C8.38867 13.0938 8.16016 13.0098 7.98438 12.8418C7.8125 12.6738 7.72656 12.4609 7.72656 12.2031C7.72656 11.9453 7.8125 11.7324 7.98438 11.5645C8.16016 11.3926 8.38867 11.3066 8.66992 11.3066Z" fill="#F2F2F2"/>
</svg>
